PathFileType	4	(X/Y/Z)	C:/Users/beibeiliu/ov580/test_trc\sequence.36_training_dense_right.trc
DataRate	CameraRate	NumFrames	NumMarkers	Units	OrigDataRate	OrigDataStartFrame	OrigNumFrames
120	120	12	19	mm	120	128	255
Frame#	Time	ThumbCMC			ThumbMCP			ThumbIP			ThumbTip			IndexMCP			IndexPIP			IndexTip			MiddleMCP			MiddlePIP			MiddleTip			RingMCP			RingPIP			RingTip			PinkyMCP			PinkyPIP			PinkyTip			BackHand1			BackHand2			BackHand3	
		X0	Y0	Z0	X1	Y1	Z1	X2	Y2	Z2	X3	Y3	Z3	X4	Y4	Z4	X5	Y5	Z5	X6	Y6	Z6	X7	Y7	Z7	X8	Y8	Z8	X9	Y9	Z9	X10	Y10	Z10	X11	Y11	Z11	X12	Y12	Z12	X13	Y13	Z13	X14	Y14	Z14	X15	Y15	Z15	X16	Y16	Z16	X17	Y17	Z17	X18	Y18	Z18	
127	1.05833	223.424	8.66924	77.6138	227.169	36.7332	68.0967	226.99	56.5503	59.7894	216.766	75.4646	48.3272	204.211	28.6879	16.5802	204.942	55.8024	5.08146	201.119	79.9685	20.8411	185.112	28.9914	13.4153	176.99	58.7262	6.99003	180.23	81.7616	28.1437	167.406	27.4506	22.6204	162.248	56.7147	18.3216	168.058	72.8913	34.9826	145.792	22.1085	38.3374	142.966	44.9499	31.7763	150.557	65.8574	36.1245	174.127	-5.42901	54.8829	182.291	-20.8715	81.0585	201.932	-11.5686	64.0664	
128	1.06667	230.191	8.66773	75.2691	232.175	35.9742	67.9079	227.836	57.3636	55.4862	217.844	79.0516	43.7173	209.83	29.6728	11.7825	203.385	52.2713	1.83163	200.473	77.4004	15.4329	187.367	27.5886	12.3139	181.284	58.5166	1.9726	181.933	81.479	25.3294	170.211	26.8996	16.9902	165.826	54.6157	14.2892	173.827	71.4648	34.1412	148.804	20.3031	35.4626	146.076	38.8796	26.3507	154.798	59.5916	30.7976	178.669	-5.74906	49.8777	184.061	-23.5665	72.9305	207.187	-11.9982	59.6994	
129	1.075	229.703	9.68827	68.2712	234.954	37.7867	60.4383	232.8	59.3586	50.7553	221.216	78.6336	42.3585	208.241	31.9888	6.37268	207.22	55.3129	-1.67356	201.668	78.9983	13.4636	189.129	29.8627	4.28378	179.675	58.1728	-0.731864	184.844	81.8394	21.0974	172.424	25.3974	15.3793	166.282	50.1525	10.4258	174.035	70.1429	32.3918	157.515	17.8231	33.0239	146.387	41.6711	26.0334	154.577	61.7594	32.6073	183.632	-7.62408	46.8989	191.456	-23.0445	70.8016	212.785	-12.3557	52.431	
130	1.08333	233.286	7.87611	65.2616	239.417	40.7893	55.8846	231.428	60.0197	45.6396	219.191	77.3165	39.7668	212.292	31.4491	4.63372	209.933	56.7998	-3.83108	200.586	79.19	11.0133	186.732	30.4305	1.97614	181.9	59.061	-2.8285	182.836	80.0664	15.7132	172.402	25.6477	12.3228	169.05	52.8411	8.92883	176.953	70.8296	29.695	159.429	18.974	26.9353	148.756	36.5395	22.0618	156.625	62.3064	26.4198	189.107	-8.6046	41.4759	190.712	-23.9022	65.4187	214.25	-11.0994	47.6559	
131	1.09167	235.605	9.50419	59.3724	240.796	38.0758	56.9002	233.982	62.6497	44.6519	221.36	77.8907	38.46	218.779	31.7469	3.12526	210.62	56.6912	-7.07823	206.526	80.4784	8.97916	192.262	27.7483	2.59531	183.802	59.4276	-4.91132	180.695	80.6552	16.79	175.752	23.6688	11.5034	170.601	51.1101	6.22052	176.289	69.1082	28.419	161.571	15.387	24.849	153.157	38.0412	18.2861	156.104	59.3118	23.2154	193.217	-9.79169	40.3966	196.803	-25.2345	56.3823	217.88	-11.2818	41.4058	
132	1.1	243.807	9.23391	61.3936	244.489	39.9508	55.3269	235.241	63.0776	42.5696	219.407	75.708	37.1468	216.572	31.5145	2.19324	208.853	56.7996	-7.23621	206.017	84.1755	10.7451	199.093	28.0722	-1.61528	185.222	58.1364	-7.71165	181.233	78.5443	11.461	179.327	23.8132	7.66614	173.575	48.1939	3.22896	179.909	68.1636	24.1549	165.892	12.0951	24.4478	156.592	36.5829	15.1384	161.579	55.4425	21.1073	195.587	-13.4748	36.3071	200.364	-27.886	57.5553	225.307	-14.462	41.8961	
133	1.10833	247.261	10.1675	59.0729	241.637	41.1833	50.7105	234.154	59.2245	43.7493	219.526	76.0202	36.7465	222.732	35.1012	-2.14658	212.687	60.1149	-7.45193	201.781	81.7722	10.3367	196.405	29.0643	-3.1983	190.489	54.5747	-10.5273	181.559	78.2775	10.2442	181.212	21.4232	6.8608	171.915	46.819	2.99296	174.59	66.0612	21.9771	165.223	11.6158	21.2212	155.367	34.7246	15.1615	161.612	52.5985	17.9484	199.863	-11.1861	33.9225	209.469	-26.2314	50.4421	229.948	-11.2739	38.51	
134	1.11667	246.08	8.64507	56.6473	244.26	39.2399	52.4625	238.052	64.3877	42.2021	220.424	78.9861	34.6652	222.136	33.0741	-2.49553	216.444	59.3001	-9.67311	206.095	82.2599	9.55386	202.619	29.0744	-5.87398	189.34	55.747	-10.8778	182.868	79.5543	13.1303	186.417	21.3155	3.60865	176.264	45.3528	0.437624	181.714	67.7138	21.7254	172.217	9.2758	20.6357	161.179	33.1537	12.1984	162.683	52.889	16.5097	206.019	-14.3081	32.8651	212.591	-28.5179	53.8903	230.279	-14.5808	37.759	
135	1.125	250.632	11.2626	53.2014	249.463	42.7913	50.962	239.14	64.9039	40.9202	220.801	76.3896	34.5178	228.254	34.2682	-3.01899	213.672	58.2486	-10.2311	204.697	79.723	6.57664	201.419	29.5662	-7.46624	190.056	54.823	-12.0755	184.334	77.081	6.54319	187.09	23.0749	0.597344	177.995	48.4655	0.473326	178.809	64.9156	17.4062	174.316	10.2117	18.6296	160.555	32.1411	12.1329	162.114	53.2683	17.339	206.131	-11.4416	29.148	216.804	-30.1162	49.889	233.458	-10.1413	33.2688	
136	1.13333	253.517	10.4921	54.6695	246.983	40.6619	49.0137	237.014	60.4982	41.4056	220.175	75.0523	34.2095	225.429	31.8483	-3.17429	218.771	59.0488	-11.8257	205.714	80.1943	7.75202	203.453	28.1652	-7.11608	193.929	52.4263	-14.1118	184.731	74.9812	6.17327	188.137	18.9152	2.99376	178.441	43.8626	-0.238594	179.304	66.0887	17.6802	176.513	8.36249	16.6067	163.167	30.172	12.5203	166.711	52.4674	16.7439	209.039	-13.5907	26.8933	216.602	-30.3623	50.1655	236.318	-12.3989	31.3894	
137	1.14167	255.446	11.8635	53.7448	247.866	42.7505	48.1749	237.668	64.1263	39.2435	219.422	73.5108	36.4651	226.243	35.3448	-6.4347	217.46	59.4885	-10.7481	208.29	80.8859	4.98779	204.959	27.9673	-7.37844	192.692	56.892	-13.0093	187.06	76.0485	6.74185	188.467	19.7629	-0.0976945	179.903	47.2833	-0.924373	182.221	66.1551	18.1768	176.756	9.74291	14.2033	164.936	28.0567	11.0554	164.843	50.9276	22.1322	209.059	-16.6476	27.8316	223.859	-29.9004	44.863	241.066	-10.2234	30.3639	
138	1.15	256.396	13.274	51.8919	249.978	43.8273	49.0559	236.541	64.5799	40.8647	216.607	77.9767	36.4523	225.005	35.8667	-6.66887	214.91	62.126	-10.967	204.244	79.6116	5.06204	205.21	28.893	-9.57861	191.343	56.435	-11.4316	181.828	72.5419	6.80296	191.206	18.0785	2.10596	176.43	44.5228	-0.114369	181.026	64.4641	17.4539	177.832	7.73607	13.6644	166.084	26.9636	10.2669	165.513	50.0949	20.6038	214.135	-14.6451	23.7692	222.657	-30.778	43.3177	241.69	-11.2394	32.2876	
